<svg width="369" height="81" viewBox="0 0 369 81" fill="none" xmlns="http://www.w3.org/2000/svg">
<path d="M166.147 72.8984V9.64844H176.497V21.7234H178.682L176.497 24.1384C176.497 19.1551 177.992 15.3218 180.982 12.6384C183.972 9.87844 188.112 8.49844 193.402 8.49844C199.766 8.49844 204.826 10.4534 208.582 14.3634C212.339 18.2734 214.217 23.6018 214.217 30.3484V72.8984H203.867V31.4984C203.867 26.9751 202.641 23.5251 200.187 21.1484C197.811 18.6951 194.552 17.4684 190.412 17.4684C186.119 17.4684 182.707 18.7718 180.177 21.3784C177.724 23.9851 176.497 27.7418 176.497 32.6484V72.8984H166.147ZM253.502 74.0484C246.832 74.0484 241.581 72.3618 237.747 68.9884C233.914 65.5384 231.997 60.9001 231.997 55.0734C231.997 49.1701 233.914 44.5318 237.747 41.1584C241.581 37.7851 246.756 36.0984 253.272 36.0984H272.822V29.7734C272.822 25.8634 271.634 22.8734 269.257 20.8034C266.957 18.6568 263.661 17.5834 259.367 17.5834C255.611 17.5834 252.467 18.3884 249.937 19.9984C247.407 21.5318 245.951 23.6401 245.567 26.3234H235.217C235.907 20.8801 238.476 16.5484 242.922 13.3284C247.369 10.1084 252.927 8.49844 259.597 8.49844C266.881 8.49844 272.631 10.3768 276.847 14.1334C281.064 17.8901 283.172 22.9884 283.172 29.4284V72.8984H273.052V60.8234H271.327L273.052 59.0984C273.052 63.6984 271.251 67.3401 267.647 70.0234C264.121 72.7068 259.406 74.0484 253.502 74.0484ZM256.032 65.8834C260.939 65.8834 264.964 64.6568 268.107 62.2034C271.251 59.7501 272.822 56.6068 272.822 52.7734V43.8034H253.502C250.052 43.8034 247.331 44.7618 245.337 46.6784C243.344 48.5951 242.347 51.2018 242.347 54.4984C242.347 58.0251 243.536 60.8234 245.912 62.8934C248.366 64.8868 251.739 65.8834 256.032 65.8834ZM306.243 72.8984V9.64844H316.363V21.7234H318.778L315.443 29.1984C315.443 22.3751 316.899 17.2384 319.813 13.7884C322.803 10.2618 327.211 8.49844 333.038 8.49844C339.708 8.49844 344.998 10.6068 348.908 14.8234C352.894 18.9634 354.888 24.5984 354.888 31.7284V35.5234H344.538V32.6484C344.538 27.6651 343.311 23.8701 340.858 21.2634C338.481 18.5801 335.069 17.2384 330.623 17.2384C326.253 17.2384 322.803 18.5801 320.273 21.2634C317.819 23.9468 316.593 27.7418 316.593 32.6484V72.8984H306.243Z" fill="white"/>
<path d="M32.545 72.8184C28.2517 72.8184 24.495 72.1668 21.275 70.8634C18.1317 69.4834 15.6017 67.5668 13.685 65.1134C11.845 62.6601 10.7333 59.7468 10.35 56.3734H20.7C21.16 58.5968 22.3867 60.3601 24.38 61.6634C26.45 62.9668 29.1717 63.6184 32.545 63.6184H37.375C41.4383 63.6184 44.4667 62.8134 46.46 61.2034C48.4533 59.5168 49.45 57.2934 49.45 54.5334C49.45 51.8501 48.53 49.7418 46.69 48.2084C44.9267 46.5984 42.2817 45.5251 38.755 44.9884L30.245 43.6084C24.035 42.5351 19.3967 40.6184 16.33 37.8584C13.34 35.0218 11.845 30.9201 11.845 25.5534C11.845 19.8801 13.6467 15.5101 17.25 12.4434C20.8533 9.3001 26.2583 7.72843 33.465 7.72843H37.835C43.8917 7.72843 48.76 9.14677 52.44 11.9834C56.12 14.8201 58.3433 18.6534 59.11 23.4834H48.76C48.3 21.4901 47.15 19.9184 45.31 18.7684C43.47 17.5418 40.9783 16.9284 37.835 16.9284H33.465C29.555 16.9284 26.68 17.6568 24.84 19.1134C23.0767 20.5701 22.195 22.7551 22.195 25.6684C22.195 28.2751 22.9617 30.1918 24.495 31.4184C26.0283 32.6451 28.4433 33.5268 31.74 34.0634L40.25 35.4434C47.0733 36.5168 52.0183 38.5101 55.085 41.4234C58.2283 44.3368 59.8 48.5534 59.8 54.0734C59.8 59.9001 57.9217 64.5001 54.165 67.8734C50.485 71.1701 44.8883 72.8184 37.375 72.8184H32.545Z" fill="white"/>
<ellipse cx="9.58073" cy="42.6965" rx="9.58073" ry="42.6965" transform="matrix(0.792078 0.61042 -0.592899 0.805277 127.242 0)" fill="url(#paint0_linear_195_12)"/>
<ellipse cx="6.84625" cy="29.4252" rx="6.84625" ry="29.4252" transform="matrix(0.792078 0.61042 -0.592906 0.805272 134.172 23.2891)" fill="url(#paint1_linear_195_12)"/>
<ellipse cx="6.84625" cy="29.4252" rx="6.84625" ry="29.4252" transform="matrix(0.792078 0.61042 -0.592906 0.805272 107.008 3.6875)" fill="url(#paint2_linear_195_12)"/>
<ellipse cx="5.36192" cy="18.5438" rx="5.36192" ry="18.5438" transform="matrix(0.792078 0.61042 -0.592911 0.805268 140.922 38.6406)" fill="url(#paint3_linear_195_12)"/>
<ellipse cx="5.36197" cy="18.5436" rx="5.36197" ry="18.5436" transform="matrix(0.792078 0.61042 -0.592906 0.805272 90.9453 5.58594)" fill="url(#paint4_linear_195_12)"/>
<defs>
<linearGradient id="paint0_linear_195_12" x1="19.5096" y1="41.7901" x2="0.417152" y2="43.3391" gradientUnits="userSpaceOnUse">
<stop stop-color="#2DE19B"/>
<stop offset="0.5" stop-color="#23AE78"/>
<stop offset="1" stop-color="#197B55"/>
</linearGradient>
<linearGradient id="paint1_linear_195_12" x1="6.84625" y1="0" x2="6.84625" y2="58.8503" gradientUnits="userSpaceOnUse">
<stop stop-color="white"/>
<stop offset="1" stop-color="#999999"/>
</linearGradient>
<linearGradient id="paint2_linear_195_12" x1="6.84625" y1="0" x2="6.84625" y2="58.8503" gradientUnits="userSpaceOnUse">
<stop stop-color="white"/>
<stop offset="1" stop-color="#999999"/>
</linearGradient>
<linearGradient id="paint3_linear_195_12" x1="5.36192" y1="0" x2="5.36192" y2="37.0876" gradientUnits="userSpaceOnUse">
<stop stop-color="#2DE19B"/>
<stop offset="1" stop-color="#197B55"/>
</linearGradient>
<linearGradient id="paint4_linear_195_12" x1="5.36197" y1="0" x2="5.36197" y2="37.0873" gradientUnits="userSpaceOnUse">
<stop stop-color="#2DE19B"/>
<stop offset="1" stop-color="#197B55"/>
</linearGradient>
</defs>
</svg>
